<?xml version="1.0" encoding="UTF-8" standalone="no"?>
<!DOCTYPE svg PUBLIC "-//W3C//DTD SVG 1.1//EN" "http://www.w3.org/Graphics/SVG/1.1/DTD/svg11.dtd">
<svg width="100%" height="100%" viewBox="0 0 2505 273" version="1.1" xmlns="http://www.w3.org/2000/svg" xmlns:xlink="http://www.w3.org/1999/xlink" xml:space="preserve" xmlns:serif="http://www.serif.com/" style="fill-rule:evenodd;clip-rule:evenodd;stroke-linecap:round;stroke-linejoin:round;stroke-miterlimit:1.5;">
    <g transform="matrix(1.25011,0.0632535,-0.0359576,0.710649,-141.717,-27.819)">
        <path d="M83.36,190.355C230.61,138.209 304.705,131.29 405,198C525.873,278.397 690.277,274.987 824,207C942.766,146.617 1131.82,124.763 1240.16,188C1330.27,240.603 1427.12,177.801 1508,147C1601.56,111.368 1679.73,149.222 1759,209C1869.42,292.261 2157.84,190.92 2157.84,190.92L2148.17,-145.164L79.006,39.008L83.36,190.355Z" style="fill:rgb(179,173,248);fill-opacity:0.31;stroke:white;stroke-opacity:0.59;stroke-width:0.52px;"/>
    </g>
    <g transform="matrix(0.8311,0.0420522,-0.0359576,0.710649,1121.32,-7.03622)">
        <path d="M-1389.21,308.688C-1241.96,256.542 279.791,157.521 405,198C532.585,248.834 670.894,257.209 824,207C958.317,158.111 1096.27,144.372 1240.16,188C1327.5,220.381 1417.46,190.555 1508,147C1632.88,116.119 1725.4,176.283 1725.4,176.283L1714.12,-84.636L-1398.26,99.536L-1389.21,308.688Z" style="fill:rgb(179,173,248);fill-opacity:0.31;stroke:white;stroke-opacity:0.59;stroke-width:0.69px;"/>
    </g>
    <g transform="matrix(0.574391,0,0,0.703307,1230.14,27.9137)">
        <path d="M255.93,-24.443L2296.04,-32.723L2296.04,231.595C2296.04,231.595 2141.81,283.139 1983.52,190.992C1925.34,138.467 1857.7,97.695 1732.72,128.163C1642.04,171.419 1551.98,200.948 1464.74,168.279C1321,124.175 1163.01,143.466 1048.53,185.904C921.767,232.892 746.618,221.024 629.559,175.521C526.485,135.454 323.299,122.824 158.929,137.201C54.412,146.343 -72.018,185.621 -291.184,193.008C-388.441,196.285 -476.689,178.207 -564.776,160.824C-615.569,150.801 -662.204,149.166 -710.689,156.163C-778.991,166.02 -849.186,236.826 -978.665,196.279C-1150.59,142.44 -1260.41,165.459 -1394.88,213.904C-1548.15,263.607 -1686.43,254.775 -1813.85,203.521C-1938.93,162.629 -2071.43,152.523 -2218.86,204.183L-2218.86,-32.723L255.93,-24.443Z" style="fill:rgb(179,173,248);fill-opacity:0.78;stroke:white;stroke-width:0.83px;"/>
    </g>
    <g transform="matrix(1.0439,0.05881,-0.05881,1.0439,-36.4193,-133.746)">
        <path d="M4.896,221.812C152.146,169.666 278.578,154.784 405,198C533.596,241.959 670.894,257.209 824,207C958.317,158.111 1133.4,146.776 1240.16,188C1335.53,224.827 1417.46,190.555 1508,147C1602.02,101.77 1782.66,101.867 1860.25,139.383C1890.01,153.778 1974.62,210.388 2147,186C2226.81,174.709 2346.28,106.15 2442.3,144.463L2486.27,170.825L2472.67,-70.588L-3.717,68.923L4.896,221.812Z" style="fill:rgb(111,111,212);stroke:white;stroke-opacity:0.59;stroke-width:0.96px;"/>
    </g>
</svg>
